# xmcd CD database file
#
# Track frame offsets:
#	150
#	9450
#	27860
#	48000
#	66772
#	89422
#	104610
#	121350
#	141967
#	159557
#	177887
#
# Disc length: 2584 seconds
#
# Revision: 0
# Processed by: cddbd v1.5.1PL0 Copyright (c) Steve Scherf et al.
# Submitted via: CDex 1.51
#
DISCID=8c0a160b
DTITLE=TWINZER - prayer
DYEAR=1997
DGENRE=JPop
TTITLE0=pray of blues
TTITLE1=Lasy (AL ver.)
TTITLE2=DESIRE
TTITLE3=Crash on my road
TTITLE4=愛しき者のために
TTITLE5=GET UP YOUR HEART, GET UP MY SOUL
TTITLE6=THAT'S COOL！？
TTITLE7=ECSTASY
TTITLE8=懐かしい街で
TTITLE9=THE SHADOW (AL ver.)
TTITLE10=Under The Water
EXTD=YEAR: 1997
EXTT0=
EXTT1=
EXTT2=
EXTT3=
EXTT4=
EXTT5=
EXTT6=
EXTT7=
EXTT8=
EXTT9=
EXTT10=
PLAYORDER=
